<svg xmlns="http://www.w3.org/2000/svg" viewBox="0 0 503.81 426.64"><defs><style>.cls-1{fill:#fff;}</style></defs><g id="Layer_2" data-name="Layer 2"><g id="_Layer_" data-name="&lt;Layer&gt;"><path class="cls-1" d="M88.71,426.64a8,8,0,0,1-5.56-13.8l13.77-13.27a63.26,63.26,0,0,1,43.92-17.77l151.32-.43a84.49,84.49,0,0,0,47.65-14.8l137.34-94A24.38,24.38,0,0,0,450.22,232L304.16,325.64a8,8,0,0,1-4.33,1.27H186a8,8,0,1,1,0-16h111.5l144.08-92.41a40.42,40.42,0,0,1,44.65,67.37l-137.34,94a100.38,100.38,0,0,1-56.67,17.61l-151.32.43a47.26,47.26,0,0,0-32.83,13.29L94.27,424.4A8,8,0,0,1,88.71,426.64Z"/><path class="cls-1" d="M8,326.91a8,8,0,0,1-6.24-13.05c68.9-85.6,162.56-92.53,229-83.28,44,6.13,77.08,44.09,77.08,88.31a8,8,0,0,1-16,0c0-36.26-27.19-67.4-63.25-72.42-62.32-8.69-150.11-2.31-214.29,77.45A8,8,0,0,1,8,326.91Z"/><path class="cls-1" d="M440.42,236.73a8,8,0,0,1-7.33-11.27,136.19,136.19,0,0,0,11.52-47.72H169.72a137.16,137.16,0,0,0,3.95,25.79,8,8,0,0,1-15.55,3.93,154.26,154.26,0,0,1-4.67-37.74,8,8,0,0,1,8-8H452.86a8,8,0,0,1,8,8A152.7,152.7,0,0,1,447.75,232,8,8,0,0,1,440.42,236.73Z"/><path class="cls-1" d="M453.68,177.74h-293a21.29,21.29,0,0,1,0-42.57h293a21.29,21.29,0,1,1,0,42.57Zm-293-26.53a5.25,5.25,0,0,0,0,10.49h293a5.25,5.25,0,1,0,0-10.49Z"/><path class="cls-1" d="M366.52,151a8,8,0,0,1-5.39-14C402.54,99.44,422.4,54,417.06,9A8,8,0,1,1,433,7.08c6,50.3-15.71,100.66-61.08,141.8A8,8,0,0,1,366.52,151Z"/><path class="cls-1" d="M227.74,151a8,8,0,0,1-5.69-2.37C196.67,123,184.68,92.17,188.3,61.71a8,8,0,0,1,15.93,1.89c-3.07,25.87,7,51.35,29.21,73.68a8,8,0,0,1-5.7,13.68Z"/><path class="cls-1" d="M447.26,151.21H286.72a8,8,0,0,1-7.05-11.84c11.2-20.69,31-40.45,58.81-58.73,36.8-24.17,63.6-50,79.66-76.74A7.94,7.94,0,0,1,425.39,0a8,8,0,0,1,6.86,4.54c1.41,2.93,34.41,72.58,22.92,140A8,8,0,0,1,447.26,151.21Zm-145.9-16h139c5.36-43.6-8.64-88.44-16.93-110.19-17.55,24.19-43.08,47.37-76.11,69.07C327.25,107.22,311.86,121,301.36,135.17Z"/><path class="cls-1" d="M280.92,151.21h-99.5a8,8,0,0,1-8-7.12c-4.78-41.87,14.75-83.17,15.59-84.9a8,8,0,0,1,6.85-4.54,7.88,7.88,0,0,1,7.25,3.88c10,16.62,26.71,32.7,49.72,47.82,15.41,10.13,27.09,21,34.71,32.36a8,8,0,0,1-6.65,12.5Zm-92.09-16h74.81a132.63,132.63,0,0,0-19.59-15.41c-19.61-12.88-34.73-26.14-45.85-40.25C193.64,92.62,187.94,113.7,188.83,135.17Z"/></g></g></svg>