<svg xmlns="http://www.w3.org/2000/svg" viewBox="0 0 128.09 256"><defs><style>.cls-1{fill:#fff;}</style></defs><g id="Layer_2" data-name="Layer 2"><g id="Layer_1-2" data-name="Layer 1"><path class="cls-1" d="M.06,173.83c0-22.22.11-44.43-.06-66.65-.06-7.59,2.59-13.41,9.09-17.43,3.63-2.25,7.21-4.59,10.75-7a2.93,2.93,0,0,0,1.14-2q.09-26.16,0-52.33a3.54,3.54,0,0,0-1.69-2.57c-6.53-3.37-9.64-9.09-8.18-15.43S18,0,25.17,0Q63.9,0,102.63,0c10.36,0,17.13,8.59,14.06,17.62a12.3,12.3,0,0,1-7.31,7.88c-1.82.71-2.22,1.75-2.21,3.51q.08,25.58,0,51.15a3,3,0,0,0,1.7,2.91A167.9,167.9,0,0,1,123,92.89a13.66,13.66,0,0,1,4.9,10c.11,1.35.15,2.72.15,4.08q0,67.24,0,134.48a21.47,21.47,0,0,1-.59,5.78c-1.51,5.33-6.19,8.76-12.1,8.77q-51.31.07-102.61,0c-7.65,0-12.65-5.43-12.69-13.42-.06-13.74,0-27.48,0-41.22Zm113.68,67.8c.08-.84.19-1.5.19-2.16q0-66.48,0-132.94a5.66,5.66,0,0,0-2.76-5.08c-4.75-3.23-9.46-6.52-14.07-9.94a3.85,3.85,0,0,0-4.25-.44c-19.17,7.41-38.35,7.39-57.57.08a4.68,4.68,0,0,0-3.64.4c-4.74,3.06-9.27,6.45-14,9.5-2.5,1.6-3.4,3.55-3.39,6.51q.11,65.44.05,130.89v3.18ZM64.12,6.13c-13.16,0-26.31,0-39.47,0-4.2,0-7.1,2.45-7.75,6.12-.58,3.32,1.26,6.51,5,8,3.87,1.58,5.37,4.39,5.36,8.44-.06,16.28,0,32.55-.08,48.82a4.1,4.1,0,0,0,2.59,4.26q34.66,17.61,69.18-.2c1.76-.91,2.19-2,2.18-3.91-.07-16.07,0-32.15-.08-48.23,0-4.57,1.31-7.88,5.93-9.57a6.88,6.88,0,0,0,4.41-7.19A7.43,7.43,0,0,0,105,6.32a26.51,26.51,0,0,0-3.79-.19Q82.69,6.1,64.12,6.13Z"/><path class="cls-1" d="M67.11,121.81H71V111.16H57.21v20.59h12c5.92,0,8.14,2.22,8.17,8.1,0,5.65,0,11.3,0,17s-2.38,7.88-7.8,7.91c-3.9,0-7.8.07-11.69,0-4.41-.09-6.87-2.5-7-6.9-.11-3.21-.14-6.44,0-9.64.23-4.9,3-6.85,9.26-6.68,4.38.13,6.82,2.57,6.92,6.94,0,1.08,0,2.15,0,3.22-.08,2-1.23,3.42-3.06,3-1.12-.23-2.25-1.78-2.8-3-.46-1-.09-2.45-.09-3.92H57.24v10.57H71V137.82c-4,0-7.93,0-11.89,0-6,0-8.23-2.27-8.25-8.35,0-5.65,0-11.3,0-17,0-5.32,2.4-7.7,7.67-7.76,3.89-.05,7.79-.08,11.69,0,4.62.11,7,2.49,7.15,7.08.09,3.11.12,6.24,0,9.35-.21,5-2.84,6.92-9.11,6.81-4.63-.08-7-2.43-7.09-7,0-1.07-.35-2.33.1-3.17a15.94,15.94,0,0,1,2.84-3.11c1,1,2.35,1.81,2.92,3C67.5,118.72,67.11,120.17,67.11,121.81Z"/><path class="cls-1" d="M67.08,186.32H71V175.48H57.18V196.2c4.21,0,8.28,0,12.34,0,5.58,0,7.82,2.22,7.85,7.77,0,5.84,0,11.68,0,17.53-.05,5.26-2.46,7.6-7.75,7.63-3.9,0-7.8,0-11.69,0-4.41-.07-6.89-2.45-7.06-6.84-.11-3.11-.1-6.24,0-9.35.16-5,2.81-7.13,8.65-7,5,.08,7.48,2.41,7.55,7.21,0,1.17.35,2.55-.14,3.46C66.34,217.66,65,219,64,219s-2.3-1.46-2.77-2.57-.11-2.65-.11-4.17H57.22v10.56H71c.07-.69.17-1.26.17-1.83,0-6.13,0-12.25,0-18.79H58.89c-5.7,0-8-2.27-8-7.92,0-5.84-.05-11.69,0-17.53,0-5.18,2.35-7.42,7.56-7.46,4,0,8-.05,12,0,4.47.08,6.81,2.38,7,6.87q.15,4.68,0,9.35c-.16,4.46-2.58,6.75-7,6.83-1.17,0-2.54.37-3.46-.12-1.86-1-4.43-2.12-5-3.76-.82-2.47-.3-5.44,0-8.15,0-.48,2-1.19,2.93-1A3.75,3.75,0,0,1,67,181.73,19.12,19.12,0,0,1,67.08,186.32Z"/><path class="cls-1" d="M50.79,47.59q0-15.2,0-30.39c0-4.17.8-5,4.89-5H72.93c3.45,0,4.43.9,4.44,4.25q0,31.43,0,62.83c0,2.68-.94,4.41-3.78,4.44-6.31.07-12.61.09-18.91,0-3,0-4-1.77-4-4.61C50.84,68.63,50.79,58.11,50.79,47.59Z"/><path class="cls-1" d="M86.4,45.06q0-13.86,0-27.73c0-1-.22-2.19.27-2.84.72-1,2-2,3-2.08.86,0,2,1.25,2.58,2.21.44.74.25,1.89.25,2.86q0,27.58,0,55.18c0,.88.25,2-.18,2.57-.77,1-2,2.45-3,2.42s-2.1-1.51-2.87-2.56c-.38-.52-.11-1.51-.11-2.29Z"/><path class="cls-1" d="M41.85,45.28q0,13.88,0,27.73c0,.88.22,2-.22,2.56-.76,1-2,2.14-3,2.11s-2.09-1.35-2.71-2.37c-.44-.73-.18-1.9-.18-2.87q0-27.3,0-54.59v-.59c0-2.28-.15-5,3-4.94s3.08,2.6,3.08,4.93Q41.83,31.28,41.85,45.28Z"/></g></g></svg>