<svg xmlns="http://www.w3.org/2000/svg" viewBox="0 0 256 237.19"><defs><style>.cls-1{fill:#fff;}</style></defs><g id="Layer_2" data-name="Layer 2"><g id="Layer_1-2" data-name="Layer 1"><path class="cls-1" d="M0,154.16c2.19-5.95,6.46-8.28,12.76-8.06,8.32.29,16.65.11,25,.05a11.31,11.31,0,0,1,8.73,3.56,2.88,2.88,0,0,0,2.45.58,67.83,67.83,0,0,0,7.63-3.06,3,3,0,0,0,1.52-2.08q.13-20.37,0-40.74a2.8,2.8,0,0,0-1.3-2c-5.29-2.82-7.84-7.17-7.81-13.16C49,80,49,70.75,49,61.51c0-8.11,5.72-13.83,13.82-13.86,9.31,0,18.62,0,28.09-.39-1-.55-1.94-1.09-2.9-1.65-7.5-4.45-13.25-10.28-15.15-19.17A21.82,21.82,0,0,1,98.17.36C107.34,2,114.56,7,121,13.29A85.56,85.56,0,0,1,137.85,36.7c.33.65.68,1.29,1.2,2.29,1.13-2.17,2-4.08,3.07-5.91,6.67-11.76,15-22,26.91-28.86C174.66,1,180.76-.7,187.24.38c15.08,2.51,22.76,17.92,16,31.85-3,6.15-7.9,10.41-13.76,13.7a6.91,6.91,0,0,0-2.22,1.71h2.6c10.42,0,20.83,0,31.24,0,8.08,0,13.88,5.77,13.91,13.8q.06,14.13,0,28.25c0,5.66-2.49,9.91-7.57,12.49a2.55,2.55,0,0,0-1.69,2.63c0,16.91,0,33.82,0,50.74a17.34,17.34,0,0,0,.23,1.81c1.48-.79,2.81-1.41,4-2.18,10.71-6.68,20.32-.39,24.14,8.37.72,1.65,1.22,3.4,1.82,5.1v6c-1.2,3.88-3,7.34-6.57,9.62q-38.6,24.63-77.17,49.28a23.34,23.34,0,0,1-12.78,3.63c-27.72,0-55.45,0-83.18-.08a32.36,32.36,0,0,1-9-1.46c-6.58-2-13.06-4.29-19.73-6.52-2.75,4.21-6.82,5.17-11.51,5.07-7.66-.17-15.33-.27-23,0-6.34.24-10.76-2-13-8.06Zm117.56,74.56c13.75,0,27.5,0,41.24,0a16.91,16.91,0,0,0,9.47-2.64q38.07-24.33,76.1-48.73a7.44,7.44,0,0,0,2.67-3.13c1.46-3.3-.45-8.69-3.87-11.62-2.69-2.31-4.77-2.33-8.91-.08Q207.64,177,181,191.52a32.41,32.41,0,0,1-16,4.22c-17.74-.09-35.49,0-53.24,0-.5,0-1,0-1.5,0a3.93,3.93,0,0,1-3.74-3.43,3.87,3.87,0,0,1,2.57-4.59,8.21,8.21,0,0,1,2.92-.43c8.67,0,17.34,0,26,0,13.27-.08,9.55,1.18,21.51-6.46,3.82-2.44,5.15-5.59,4.07-9.25-1.15-3.91-3.92-5.81-8.51-5.82-11.83,0-23.67,0-35.5,0a24.41,24.41,0,0,1-11.95-3c-7.4-4-14.86-7.84-22.23-11.87a14.27,14.27,0,0,0-13.14-.76c-7.12,3-14.32,5.81-21.51,8.62A2.46,2.46,0,0,0,49,161.42Q49,190,49,218.66c0,1.45.35,2.17,1.85,2.65,5.7,1.82,11.27,4,17,5.69a39.26,39.26,0,0,0,10.25,1.65C91.23,228.83,104.4,228.72,117.56,228.72Zm25.81-71.57c4.62,0,8.93,0,13.25,0A16.41,16.41,0,0,1,172.51,173c.14,5.72-2.26,10.24-6.9,14.14a19.34,19.34,0,0,0,10.78-2.76c13-7.06,26-14.16,39-21.16a3.2,3.2,0,0,0,1.9-3.32c-.06-17.91,0-35.82,0-53.72,0-.8-.09-1.59-.13-2.36H143.37Zm-76.6-14.1a16.09,16.09,0,0,0,1.78-.59c7.48-3.41,14.63-2.69,21.73,1.31,6.88,3.87,13.89,7.52,20.91,11.14a15.62,15.62,0,0,0,6.06,2.1c5.72.28,11.47.1,17.37.1V103.8H66.77Zm76.68-86.33V95c.54,0,.87.1,1.2.1q38.1,0,76.21,0c3.68,0,5.62-2,5.63-5.81,0-8.91,0-17.82,0-26.73,0-4.84-1.61-6.46-6.41-6.46h-61.3c1.91,2.25,3.52,4.11,5.09,6,4.94,5.93,9.8,12,14.85,17.79,1.9,2.2,2.42,4.56.76,6.4a4.25,4.25,0,0,1-6.24.09,60.79,60.79,0,0,1-6.47-6.57c-4.45-5.4-8.59-11-13.06-16.41A19.47,19.47,0,0,0,143.45,56.72Zm-8.83,38.43V56.1c-2.8,1.72-5.44,2.8-7.33,4.63C124,64,121.06,67.64,118,71.16c-4.28,5-8.41,10.09-12.85,14.92-2.1,2.29-4.91,2.13-6.61.24s-1.13-4.16.94-6.55c6.62-7.63,13.06-15.41,19.9-23.53-1.05-.05-1.51-.1-2-.1q-27.24,0-54.48,0c-3.61,0-5.45,1.92-5.46,5.62q0,13.74,0,27.49c0,4,1.88,5.86,6,5.89,3.91,0,7.83,0,11.74,0ZM8.5,189.89c0,10.91,0,21.81,0,32.71,0,2.27.85,3.1,3.1,3.08q12.86-.1,25.72,0c2.36,0,3.24-.84,3.23-3.22q-.08-32.34,0-64.67c0-2.41-.9-3.21-3.25-3.18-8.49.09-17,0-25.47,0-3,0-3.31.29-3.31,3.28Q8.49,173.92,8.5,189.89ZM145.11,47a39.35,39.35,0,0,0,4.36,0c4.78-.57,9.59-1.06,14.32-1.9,7.7-1.37,15.34-3,22.21-7,4.57-2.62,8.34-6.08,10.21-11.19,3.07-8.36-1.63-16.77-10.2-18.13-4.54-.71-8.72.68-12.67,2.81-7.73,4.17-13.51,10.45-18.58,17.44A70.87,70.87,0,0,0,145.11,47Zm-12,.32c-4.93-12.42-11.69-22.89-21.63-31a45.21,45.21,0,0,0-12-6.8C93.05,7.12,86.82,9.16,83.37,14S80.05,25.47,84,31a24.93,24.93,0,0,0,10.17,8.22C106.33,44.84,119.43,46.23,133.1,47.36Z"/></g></g></svg>