<svg xmlns="http://www.w3.org/2000/svg" viewBox="0 0 445.47 482.74"><defs><style>.cls-1{fill:#fff;}</style></defs><g id="Layer_2" data-name="Layer 2"><g id="_Layer_" data-name="&lt;Layer&gt;"><path class="cls-1" d="M340.38,185.83a8,8,0,0,1-8-8.49c.11-1.94,3-47.94,26.59-73.6A39.24,39.24,0,1,1,414.7,159c-25.9,23.78-71.9,26.71-73.85,26.82ZM387,108.05a23.16,23.16,0,0,0-16.41,6.78c-13.7,14.94-19.09,40.18-21.07,53.89,13.72-2,39-7.44,54.13-21.31A23.19,23.19,0,0,0,387,108.05Z"/><path class="cls-1" d="M340.38,185.83a8,8,0,0,1-6.08-2.8c-1.27-1.47-31.13-36.6-32-71.42a39.16,39.16,0,0,1,77.1-9.44,8,8,0,0,1-3.82,9,23.22,23.22,0,0,0-5,3.66c-19.5,21.26-22.13,63-22.16,63.45A8,8,0,0,1,343,185.4,7.88,7.88,0,0,1,340.38,185.83Zm1.14-97.08a23.21,23.21,0,0,0-23.18,22.8c.4,16.19,9.21,33.42,16.86,45.43,3.21-16.06,9.93-38.16,23.77-53.24a36.19,36.19,0,0,1,2.92-2.65,23.16,23.16,0,0,0-19.95-12.33Z"/><path class="cls-1" d="M406.91,215.89c-35.16-.88-70.27-30.73-71.75-32a8,8,0,0,1,4.75-14.09c.42,0,42.28-2.74,63.69-22.4a22.87,22.87,0,0,0,3.43-4.8,8,8,0,0,1,9-3.81,39.16,39.16,0,0,1-9.1,77.1ZM361.21,183c12.05,7.66,29.37,16.47,45.77,16.89a23.12,23.12,0,0,0,10.13-43.56,31.26,31.26,0,0,1-2.42,2.69C399.47,173,377.3,179.74,361.21,183Z"/><path class="cls-1" d="M341.3,240.17a8,8,0,0,1-8-8V184.91H286a8,8,0,0,1,0-16h55.25a8,8,0,0,1,8,8v55.26A8,8,0,0,1,341.3,240.17Z"/><path class="cls-1" d="M233,293.2a8,8,0,0,1-8-8.48c.11-1.94,3-48,26.59-73.6a39.24,39.24,0,1,1,55.73,55.25c-25.91,23.78-71.91,26.71-73.85,26.82Zm46.57-77.77a23.12,23.12,0,0,0-16.41,6.78c-13.7,14.94-19.08,40.17-21.07,53.89,13.72-2,39-7.44,54.13-21.32a23.21,23.21,0,0,0-.25-32.57A23.12,23.12,0,0,0,279.57,215.43Z"/><path class="cls-1" d="M233,293.2a8,8,0,0,1-6.08-2.79c-1.27-1.48-31.12-36.6-32-71.42a39.25,39.25,0,0,1,39.21-38.9h.7A39.3,39.3,0,0,1,272,209.55a8,8,0,0,1-3.81,9,23.16,23.16,0,0,0-5,3.68c-19.42,21.17-22.13,63-22.15,63.44a8,8,0,0,1-5.44,7.13A8.18,8.18,0,0,1,233,293.2Zm1.14-97.07A23.2,23.2,0,0,0,211,218.93c.42,16.19,9.22,33.42,16.87,45.43,3.21-16.06,9.93-38.16,23.77-53.24a34.42,34.42,0,0,1,2.92-2.65,23.13,23.13,0,0,0-19.95-12.33Z"/><path class="cls-1" d="M299.53,323.27c-35.15-.89-70.27-30.73-71.75-32a8,8,0,0,1,4.75-14.09c.42,0,42.27-2.74,63.69-22.4a23,23,0,0,0,3.43-4.8,8,8,0,0,1,9-3.82,39.17,39.17,0,0,1-9.1,77.11Zm-45.7-32.92c12,7.66,29.38,16.47,45.77,16.88A23.2,23.2,0,0,0,322,283.63a23.13,23.13,0,0,0-12.31-19.95,34.5,34.5,0,0,1-2.41,2.68C292.09,280.35,269.92,287.12,253.83,290.35Z"/><path class="cls-1" d="M233.92,347.55a8,8,0,0,1-8-8V292.29H178.66a8,8,0,1,1,0-16h55.26a8,8,0,0,1,8,8v55.26A8,8,0,0,1,233.92,347.55Z"/><path class="cls-1" d="M125.62,400.58a8,8,0,0,1-8-8.48c.12-2,3-48,26.59-73.61a39.24,39.24,0,1,1,55.74,55.25C174,397.53,128,400.46,126.09,400.57Zm46.57-77.78a23.13,23.13,0,0,0-16.41,6.79c-13.74,15-19.11,40.19-21.09,53.89,13.73-2,39-7.44,54.16-21.32a23.2,23.2,0,0,0-16.66-39.36Z"/><path class="cls-1" d="M125.62,400.58a8,8,0,0,1-6.08-2.79c-1.27-1.48-31.12-36.61-32-71.42.38-22,18.49-39.33,39.92-38.89a39.28,39.28,0,0,1,37.18,29.45,8,8,0,0,1-3.81,9,22.75,22.75,0,0,0-5.05,3.67c-19.48,21.24-22.13,63-22.15,63.43a8,8,0,0,1-5.44,7.14A8.18,8.18,0,0,1,125.62,400.58Zm1.15-97.07a23.23,23.23,0,0,0-23.2,22.8c.42,16.19,9.22,33.42,16.87,45.43,3.21-16.06,9.93-38.17,23.76-53.25a38.06,38.06,0,0,1,2.94-2.64,23.12,23.12,0,0,0-20-12.33Z"/><path class="cls-1" d="M192.15,430.65c-35.15-.89-70.27-30.73-71.75-32a8,8,0,0,1,4.75-14.09c.42,0,42.27-2.73,63.7-22.39a23,23,0,0,0,3.42-4.8,8,8,0,0,1,9-3.81,39.17,39.17,0,0,1-9.11,77.1Zm-45.7-32.92c12.05,7.66,29.38,16.47,45.77,16.88A23.22,23.22,0,0,0,214.67,391a23.12,23.12,0,0,0-12.32-19.95,32.57,32.57,0,0,1-2.41,2.68C184.71,387.72,162.54,394.5,146.45,397.73Z"/><path class="cls-1" d="M126.54,454.93a8,8,0,0,1-8-8V399.67H71.28a8,8,0,1,1,0-16h55.26a8,8,0,0,1,8,8v55.26A8,8,0,0,1,126.54,454.93Z"/><path class="cls-1" d="M43.47,482.74a8,8,0,0,1-5.67-13.69L334.71,172.14a8,8,0,0,1,11.34,11.34L49.14,480.39A8,8,0,0,1,43.47,482.74Z"/><path class="cls-1" d="M222.46,111.34a8,8,0,0,1-7.88-6.49c-.37-1.92-8.88-47.21,7.61-77.89a39.24,39.24,0,1,1,67.64,39.78C270.6,96.19,226.74,110.38,224.88,111A8,8,0,0,1,222.46,111.34Zm33.67-87.85a23.22,23.22,0,0,0-5.77.73,23,23,0,0,0-14.21,10.63c-9.6,17.86-8.59,43.64-7.13,57.42,12.8-5.33,36-16.84,47.2-34a23.22,23.22,0,0,0-20.09-34.77Z"/><path class="cls-1" d="M222.45,111.34a8.06,8.06,0,0,1-4.6-1.45c-1.59-1.12-39.19-27.78-48.63-61.31A39.16,39.16,0,0,1,241.6,20.4a8,8,0,0,1-1.48,9.65,22.58,22.58,0,0,0-4,4.8c-13.6,25.31-5.9,66.54-5.82,66.95a8,8,0,0,1-7.88,9.54ZM207.2,16a22.75,22.75,0,0,0-5.22.61,23.2,23.2,0,0,0-17.24,27.91c4.4,15.59,17.18,30.11,27.56,39.86-.86-16.35.2-39.43,9.89-57.46a36.05,36.05,0,0,1,2.18-3.29A23.29,23.29,0,0,0,207.2,16Z"/><path class="cls-1" d="M267,124.82a7.61,7.61,0,0,1-1.05-.07c-24.59-3.2-46.16-13.79-47.07-14.25A8,8,0,0,1,220,95.68c.4-.13,40.29-13.08,56.19-37.42a23.07,23.07,0,0,0,2.14-5.51,8,8,0,0,1,7.74-5.91,39.62,39.62,0,0,1,24.67,8.75,8,8,0,1,1-10.08,12.48,23.43,23.43,0,0,0-9.19-4.53,33.36,33.36,0,0,1-1.67,3.2c-11.3,17.31-31.12,29.35-45.91,36.45A134.15,134.15,0,0,0,268,108.84a8,8,0,0,1-1,16Z"/><path class="cls-1" d="M236.76,163.78a8,8,0,0,1-7.77-6L217.33,112l-45.78,11.66a8,8,0,0,1-4-15.54l53.55-13.64a8,8,0,0,1,9.75,5.79l13.64,53.55a8,8,0,0,1-7.77,10Z"/><path class="cls-1" d="M144.91,241.9a8,8,0,0,1-7.87-6.49c-.37-1.92-8.89-47.21,7.6-77.89a39.24,39.24,0,1,1,67.64,39.78c-19.23,29.45-63.08,43.64-64.94,44.23A8,8,0,0,1,144.91,241.9Zm33.67-87.84a23.24,23.24,0,0,0-20,11.35c-9.59,17.86-8.58,43.64-7.12,57.42,12.81-5.33,36-16.83,47.2-34a23.21,23.21,0,0,0-20.09-34.76Z"/><path class="cls-1" d="M144.91,241.9a8,8,0,0,1-4.6-1.45c-1.59-1.12-39.2-27.78-48.65-61.31A39.16,39.16,0,0,1,164.05,151a8,8,0,0,1-1.48,9.65,23.16,23.16,0,0,0-4,4.8c-13.59,25.31-5.88,66.54-5.8,67a8,8,0,0,1-7.88,9.54Zm-15.27-95.3a22.73,22.73,0,0,0-5.21.61,23.22,23.22,0,0,0-17.24,27.91c4.41,15.64,17.19,30.16,27.56,39.89-.86-16.36.19-39.45,9.89-57.49a36.05,36.05,0,0,1,2.18-3.29A23.32,23.32,0,0,0,129.64,146.6Z"/><path class="cls-1" d="M154.11,274.35a8,8,0,0,1-7.76-6l-6.57-25.79L94,254.18a8,8,0,1,1-4-15.54L143.59,225a8,8,0,0,1,6.08.88,8,8,0,0,1,3.67,4.91l8.55,33.56a8,8,0,0,1-7.78,10Z"/><path class="cls-1" d="M67.35,372.46A8,8,0,0,1,59.49,366c-.37-1.92-8.9-47.21,7.6-77.89a39.35,39.35,0,0,1,54-14,8,8,0,1,1-8.2,13.79A23.25,23.25,0,0,0,81,296c-13.64,25.39-5.88,66.53-5.8,66.93a8,8,0,0,1-7.89,9.55Z"/><path class="cls-1" d="M67.36,372.46a8,8,0,0,1-4.6-1.45c-1.59-1.12-39.2-27.78-48.65-61.3A39.17,39.17,0,0,1,86.5,281.52,8,8,0,0,1,85,291.17a22.85,22.85,0,0,0-4,4.8c-13.64,25.4-5.88,66.54-5.8,66.94a8,8,0,0,1-7.88,9.55ZM52.1,277.16a22.6,22.6,0,0,0-5.21.61,23.23,23.23,0,0,0-17.25,27.92c4.4,15.58,17.18,30.1,27.56,39.86-.86-16.36.19-39.44,9.89-57.47a37.49,37.49,0,0,1,2.18-3.29A23.29,23.29,0,0,0,52.1,277.16Z"/><path class="cls-1" d="M14.46,385a8,8,0,0,1-2-15.79L66,355.56a8,8,0,1,1,4,15.54L16.45,384.74A8,8,0,0,1,14.46,385Z"/><path class="cls-1" d="M8,472.36a8,8,0,0,1-6.9-12.12l214.44-361a8,8,0,0,1,13.8,8.19l-214.44,361A8,8,0,0,1,8,472.36Z"/></g></g></svg>