<svg xmlns="http://www.w3.org/2000/svg" viewBox="0 0 241.7 256"><defs><style>.cls-1{fill:#fff;}</style></defs><g id="Layer_2" data-name="Layer 2"><g id="Layer_1-2" data-name="Layer 1"><path class="cls-1" d="M147.21,88.31,168,99.77c10.51,5.78,21,11.58,31.56,17.27a10.39,10.39,0,0,0,4.6,1.17c10.57.1,21.14.05,31.71.05,3.59,0,5.86,2.23,5.8,5.85-.21,12.85.42,25.71-1.86,38.5-8.25,46.2-46.69,84.28-93.07,91.14-22.09,3.27-44.36,3.6-65.91-3.27C43,238.42,17.81,213.2,5.21,175.54A107.12,107.12,0,0,1,.05,142.09c0-6,0-11.92,0-17.87,0-3.65,2.35-6,6.05-6,10.57,0,21.14,0,31.71,0a7.69,7.69,0,0,0,3.58-.68q26-14.2,52-28.54a11.79,11.79,0,0,0,1-.73c-3.46-3-6.89-5.7-10.1-8.67C72.75,69,63.11,57.06,57.91,42A63,63,0,0,1,56.19,36c-1.09-4.46-1.12-4.57,2.74-6.74a4.51,4.51,0,0,1,3.55,0c4.61,2,9.12,4.33,14.61,7,0-5.26-.16-9.62,0-14a86.32,86.32,0,0,1,1.29-10.85,3.83,3.83,0,0,1,2.18-2.47c24.11-7.42,48.64-11,73.87-7.57,2,.27,4,.65,6,1,4.37.8,4.56.79,4.89,5.31.66,9,1.08,18,1.62,27.37,3.41-1.58,7.28-3.29,11.06-5.18,3.4-1.69,4.84-1.7,7.41,1.14.68.75.68,2.47.45,3.64-2.14,10.64-7,20-13.46,28.68A122.21,122.21,0,0,1,150.05,86ZM7.22,149c.24,2.37.38,4.46.69,6.53,6,39.18,27,67.32,62.91,83.88,24.82,11.45,51.37,12.18,77.39,6.89,44.24-9,72-36.69,83.74-80.31,1.46-5.47,1.94-11.2,2.91-17Zm227.41-23.56H7.08v16.32H234.63ZM63.67,38C65,41.15,66,43.93,67.3,46.56c7.53,15.28,19.27,26.88,32.65,37a5.2,5.2,0,0,0,3,.72q18,.07,36,0a5.63,5.63,0,0,0,3.19-.89c11.21-8.42,21.24-18,28.61-30.08,2.86-4.67,5-9.77,7.49-14.67C139.77,54,102.06,54,63.67,38Zm122.8,80.08a5.67,5.67,0,0,0-.83-.75Q162.59,104.66,139.49,92a7.78,7.78,0,0,0-3.55-.77c-10-.06-20-.08-30,0a9.41,9.41,0,0,0-4.31,1.13q-22,12-43.89,24.07c-.71.39-1.38.85-2.63,1.62ZM90.56,13.32A108.38,108.38,0,0,0,114.9,29.05a5.8,5.8,0,0,0,4.18.08A125.84,125.84,0,0,0,149.6,10.29c.7-.58,1.33-1.26,2.46-2.34A152.69,152.69,0,0,0,90.56,13.32Zm68.47-2c-15.67,14.61-33.57,23.91-53.34,30.6a9.43,9.43,0,0,0,1.12.37c17,1.72,33.76.68,50.18-4.16a3.4,3.4,0,0,0,1.95-2.51C159.09,27.76,159,19.91,159,11.3ZM107.82,34,84.46,18a10.29,10.29,0,0,0-.31,1.6c-.15,5-.4,10-.35,14.94,0,3.51,2.44,5.52,5.94,4.66C95.75,37.69,101.64,35.76,107.82,34Z"/></g></g></svg>