<svg xmlns="http://www.w3.org/2000/svg" viewBox="0 0 343.27 488.18"><defs><style>.cls-1{fill:#fff;}</style></defs><g id="Layer_2" data-name="Layer 2"><g id="_Layer_" data-name="&lt;Layer&gt;"><path class="cls-1" d="M294.39,488.17H8a8,8,0,1,1,0-16H294.39a8,8,0,1,1,0,16Z"/><path class="cls-1" d="M151.2,430.8A107.51,107.51,0,0,1,48.56,290.44a8,8,0,0,1,12.2-4.17c5.53,3.81,10.86,2,21.71-3s25.78-12,40.21.36a8,8,0,0,1,1.82,1.52c6.12,5.43,11.37,3.77,23.31-1.8,11-5.14,25.92-12.13,40.43.46a8.87,8.87,0,0,1,1,.8c6.48,6.07,11.69,4.47,23.91-1.21,9.77-4.53,21.91-10.17,34.58-3.49a8,8,0,0,1,3.73,4.16A106.67,106.67,0,0,1,259,323,107.91,107.91,0,0,1,151.2,430.8Zm-89.63-127A89.72,89.72,0,0,0,59.46,323,91.75,91.75,0,1,0,243,323a89.87,89.87,0,0,0-5.2-29.89c-4.72-1.11-10.1,1.22-17.81,4.8-11,5.12-26,12.08-40.59-.68a7.54,7.54,0,0,1-1-.8c-6.31-5.89-11.52-4.28-23.74,1.41-11,5.16-26,12.17-40.61-.61a7.54,7.54,0,0,1-1-.8c-6.31-5.9-11.53-4.32-23.76,1.35C81.17,301.52,71.62,306,61.57,303.83Z"/><path class="cls-1" d="M186.86,70.17H115.55a8,8,0,0,1-8-8V41.08L92.1,11.75A8,8,0,0,1,99.2,0h104a8,8,0,0,1,7.1,11.75L194.87,41.08V62.15A8,8,0,0,1,186.86,70.17Zm-63.29-16h55.27v-15a8,8,0,0,1,.92-3.73L189.93,16H112.48l10.17,19.33a8.07,8.07,0,0,1,.92,3.73Z"/><path class="cls-1" d="M192.55,98.86h-82.7a22.37,22.37,0,0,1,0-44.73h82.7a22.37,22.37,0,0,1,0,44.73Zm-82.7-28.69a6.33,6.33,0,0,0,0,12.65h82.7a6.33,6.33,0,1,0,0-12.65Z"/><path class="cls-1" d="M257.52,488.18h-215A23.21,23.21,0,0,1,19.3,465V447.76a23.21,23.21,0,0,1,23.18-23.18H45a146.72,146.72,0,0,1,8.54-211.35c34-30.17,53.65-74.79,54-122.45a8,8,0,0,1,8-8h71.37a8,8,0,0,1,8,8c.24,35,11.21,69.32,30.88,96.76a8.11,8.11,0,0,1,1.49,4.19A84.52,84.52,0,0,0,235.05,222c10.15,22,28.15,38,47,41.78a8,8,0,0,1,5.87,4.89,146.89,146.89,0,0,1-30.44,155.89,23.23,23.23,0,0,1,23.26,23.18V465A23.21,23.21,0,0,1,257.52,488.18Zm-215-47.56a7.14,7.14,0,0,0-7.14,7.14V465a7.14,7.14,0,0,0,7.14,7.14h215a7.16,7.16,0,0,0,7.14-7.15V447.76a7.15,7.15,0,0,0-7.14-7.14H236.59a8,8,0,0,1-4.93-14.34,130.86,130.86,0,0,0,42.78-147.81c-22.07-6.16-42.46-24.82-53.95-49.73A100.85,100.85,0,0,1,211.44,195c-19.28-27.68-30.62-61.48-32.35-96.17H123.31C120.92,148,99.62,193.74,64.16,225.22a130.7,130.7,0,0,0,6.59,201.06,8,8,0,0,1-4.93,14.34Z"/><path class="cls-1" d="M289.93,280.69c-9.81,0-20-2.72-29.92-8.11-16.61-9-30.64-24.59-39.52-43.84-18.69-40.52-8.48-85.23,22.76-99.64,15.55-7.19,33.69-5.92,51.06,3.51,16.61,9,30.64,24.59,39.53,43.84s11.61,40,7.69,58.52c-4.09,19.34-14.91,34-30.46,41.12A50.21,50.21,0,0,1,289.93,280.69ZM264.38,140.56a34.11,34.11,0,0,0-14.4,3.1c-23.22,10.71-29.92,45.86-14.93,78.36,7.44,16.13,19,29.08,32.62,36.46,12.82,7,25.84,8,36.68,3s18.47-15.62,21.49-29.89c3.21-15.13.87-32.34-6.57-48.47s-19-29.08-32.62-36.47A46.89,46.89,0,0,0,264.38,140.56Z"/><path class="cls-1" d="M249.87,224.72a8,8,0,0,1-7.2-4.48l-.67-1.42c-5.71-12.35-7.16-25.6-4.11-37.28a8,8,0,0,1,15.52,4c-2.09,8-.94,17.66,3.14,26.52l.51,1.06a8,8,0,0,1-7.19,11.56Z"/><path class="cls-1" d="M275,141.77a8,8,0,0,1-7.59-5.43c-14.14-41.47-61.63-51.89-62.11-52a8,8,0,0,1,3.25-15.71c2.32.48,56.9,12.24,74,62.52A8,8,0,0,1,275,141.77Z"/><path class="cls-1" d="M253.76,164.14a8.32,8.32,0,0,1-2.8-.5c-51-19-56.44-73.61-56.65-75.93a8,8,0,0,1,16-1.44c.19,1.91,4.88,46.91,46.28,62.34a8,8,0,0,1-2.8,15.53Z"/></g></g></svg>